<svg xmlns="http://www.w3.org/2000/svg" version="1.1" xmlns:xlink="http://www.w3.org/1999/xlink" xmlns:svgjs="http://svgjs.dev/svgjs" width="1440" height="560" preserveAspectRatio="none" viewBox="0 0 1440 560"><g mask="url(&quot;#SvgjsMask1000&quot;)" fill="none"><rect width="1440" height="560" x="0" y="0" fill="rgba(0, 0, 0, 1)"></rect><path d="M259.585,50.04C281.777,50.873,301.59,36.666,312.405,17.269C322.937,-1.62,323.282,-25.057,311.603,-43.259C300.722,-60.218,279.735,-65.15,259.585,-65.054C239.647,-64.959,218.551,-59.938,208.42,-42.766C198.161,-25.376,203.468,-4.137,213.216,13.545C223.394,32.007,238.518,49.249,259.585,50.04" fill="rgba(49, 5, 73, 0.4)" class="triangle-float1"></path><path d="M403.398,336.619C435.607,333.996,453.813,302.631,468.546,273.869C481.599,248.385,489.747,219.438,476.392,194.112C462.207,167.212,433.798,149.51,403.398,150.324C374.199,151.106,352.562,173.21,336.872,197.847C319.483,225.153,302.86,257.029,316.854,286.221C332.321,318.485,367.736,339.523,403.398,336.619" fill="rgba(49, 5, 73, 0.4)" class="triangle-float3"></path><path d="M6.505907445017222 244.99818310927952L111.53667747793585 168.68886193121313 35.227356299869435 63.65809189829449-69.80341373304918 139.9674130763609z" fill="rgba(49, 5, 73, 0.4)" class="triangle-float1"></path><path d="M625.4151605741687 335.41339085672894L788.1652265268131 375.9915397632976 828.7433754333817 213.24147381065328 665.9933094807374 172.66332490408456z" fill="rgba(49, 5, 73, 0.4)" class="triangle-float3"></path><path d="M312.3536737186211-2.71421119840754L278.3297526076242 96.09843059333382 377.14239439936557 130.12235170433075 411.16631551036244 31.309709912589383z" fill="rgba(49, 5, 73, 0.4)" class="triangle-float2"></path><path d="M551.851,133.493C581.225,131.779,606.311,113.145,619.845,87.018C632.33,62.916,627.87,35.193,615.207,11.184C601.431,-14.936,581.36,-40.785,551.851,-41.899C520.899,-43.068,495.656,-20.441,479.63,6.065C462.91,33.72,452.638,67.728,468.573,95.843C484.673,124.25,519.254,135.395,551.851,133.493" fill="rgba(49, 5, 73, 0.4)" class="triangle-float1"></path><path d="M260.84,698.904C300.64,700.135,339.376,680.227,358.581,645.345C377.201,611.526,369.758,570.594,349.616,537.659C330.426,506.28,297.6,484.262,260.84,485.521C225.919,486.717,199.304,513.041,182.005,543.399C164.914,573.392,157.426,608.818,173.035,639.608C190.151,673.37,223.005,697.734,260.84,698.904" fill="rgba(49, 5, 73, 0.4)" class="triangle-float3"></path><path d="M-17.571637666879926 410.873929991307L-7.774746151437659 550.9760059068608 122.53043824867382 401.07703847586475z" fill="rgba(49, 5, 73, 0.4)" class="triangle-float2"></path></g><defs><mask id="SvgjsMask1000"><rect width="1440" height="560" fill="#ffffff"></rect></mask><style>
                @keyframes float1 {
                    0%{transform: translate(0, 0)}
                    50%{transform: translate(-10px, 0)}
                    100%{transform: translate(0, 0)}
                }

                .triangle-float1 {
                    animation: float1 5s infinite;
                }

                @keyframes float2 {
                    0%{transform: translate(0, 0)}
                    50%{transform: translate(-5px, -5px)}
                    100%{transform: translate(0, 0)}
                }

                .triangle-float2 {
                    animation: float2 4s infinite;
                }

                @keyframes float3 {
                    0%{transform: translate(0, 0)}
                    50%{transform: translate(0, -10px)}
                    100%{transform: translate(0, 0)}
                }

                .triangle-float3 {
                    animation: float3 6s infinite;
                }
            </style></defs></svg>