<svg xmlns="http://www.w3.org/2000/svg" version="1.1" xmlns:xlink="http://www.w3.org/1999/xlink" xmlns:svgjs="http://svgjs.dev/svgjs" width="1440" height="560" preserveAspectRatio="none" viewBox="0 0 1440 560"><g mask="url(&quot;#SvgjsMask2050&quot;)" fill="none"><rect width="1440" height="560" x="0" y="0" fill="rgba(0, 0, 0, 1)"></rect><rect width="356.16" height="356.16" clip-path="url(&quot;#SvgjsClipPath2051&quot;)" x="1025.28" y="37.25" fill="url(&quot;#SvgjsPattern2052&quot;)" transform="rotate(116.33, 1203.36, 215.33)"></rect><path d="M729.93 9.87a5.6 5.6 0 1 0 10.59 3.65 5.6 5.6 0 1 0-10.59-3.65zM745.06 15.08a5.6 5.6 0 1 0 10.59 3.64 5.6 5.6 0 1 0-10.59-3.64zM760.19 20.28a5.6 5.6 0 1 0 10.59 3.65 5.6 5.6 0 1 0-10.59-3.65zM775.32 25.49a5.6 5.6 0 1 0 10.59 3.64 5.6 5.6 0 1 0-10.59-3.64zM694.47 14.59a5.6 5.6 0 1 0 10.59 3.64 5.6 5.6 0 1 0-10.59-3.64zM709.6 19.79a5.6 5.6 0 1 0 10.59 3.65 5.6 5.6 0 1 0-10.59-3.65zM724.72 25a5.6 5.6 0 1 0 10.6 3.64 5.6 5.6 0 1 0-10.6-3.64zM739.85 30.21a5.6 5.6 0 1 0 10.59 3.64 5.6 5.6 0 1 0-10.59-3.64z" fill="rgba(53, 0, 115, 1)"></path><rect width="138.4" height="138.4" clip-path="url(&quot;#SvgjsClipPath2053&quot;)" x="557.93" y="41.07" fill="url(&quot;#SvgjsPattern2054&quot;)" transform="rotate(273.43, 627.13, 110.27)"></rect><rect width="126" height="126" clip-path="url(&quot;#SvgjsClipPath2055&quot;)" x="404.49" y="284.1" fill="url(&quot;#SvgjsPattern2056&quot;)" transform="rotate(97.37, 467.49, 347.1)"></rect><rect width="60" height="60" clip-path="url(&quot;#SvgjsClipPath2057&quot;)" x="1033.47" y="239.8" fill="url(&quot;#SvgjsPattern2058&quot;)" transform="rotate(170.83, 1063.47, 269.8)"></rect><rect width="264" height="264" clip-path="url(&quot;#SvgjsClipPath2059&quot;)" x="458.86" y="-19.69" fill="url(&quot;#SvgjsPattern2060&quot;)" transform="rotate(351.84, 590.86, 112.31)"></rect><rect width="196.32" height="196.32" clip-path="url(&quot;#SvgjsClipPath2061&quot;)" x="1023.03" y="235.23" fill="url(&quot;#SvgjsPattern2062&quot;)" transform="rotate(237.12, 1121.19, 333.39)"></rect><path d="M1470.98 142.13 L1393.62 65.53L1373.3766810828677 162.75331891713222z" fill="rgba(53, 0, 115, 1)"></path><rect width="101.2" height="101.2" clip-path="url(&quot;#SvgjsClipPath2063&quot;)" x="4.31" y="70.02" fill="url(&quot;#SvgjsPattern2064&quot;)" transform="rotate(245.17, 54.91, 120.62)"></rect><rect width="60" height="60" clip-path="url(&quot;#SvgjsClipPath2065&quot;)" x="989.36" y="312.4" fill="url(&quot;#SvgjsPattern2066&quot;)" transform="rotate(97.61, 1019.36, 342.4)"></rect><path d="M924.2 220.42000000000002 L1055.45 219.81L941.8314245314607 172.12142453146063z" stroke="rgba(53, 0, 115, 1)" stroke-width="1" stroke-dasharray="2, 2"></path><rect width="156" height="156" clip-path="url(&quot;#SvgjsClipPath2067&quot;)" x="285.22" y="255.72" fill="url(&quot;#SvgjsPattern2068&quot;)" transform="rotate(137.7, 363.22, 333.72)"></rect></g><defs><mask id="SvgjsMask2050"><rect width="1440" height="560" fill="#ffffff"></rect></mask><pattern x="0" y="0" width="356.16" height="6.36" patternUnits="userSpaceOnUse" id="SvgjsPattern2052"><rect width="356.16" height="3.18" x="0" y="0" fill="rgba(53, 0, 115, 1)"></rect><rect width="356.16" height="3.18" x="0" y="3.18" fill="rgba(0, 0, 0, 0)"></rect></pattern><clipPath id="SvgjsClipPath2051"><circle r="89.04" cx="1203.36" cy="215.33"></circle></clipPath><pattern x="0" y="0" width="13.84" height="13.84" patternUnits="userSpaceOnUse" id="SvgjsPattern2054"><path d="M0 13.84L6.92 0L13.84 13.84" stroke="rgba(53, 0, 115, 1)" fill="none"></path></pattern><clipPath id="SvgjsClipPath2053"><circle r="34.6" cx="627.13" cy="110.27"></circle></clipPath><pattern x="0" y="0" width="126" height="7" patternUnits="userSpaceOnUse" id="SvgjsPattern2056"><rect width="126" height="3.5" x="0" y="0" fill="rgba(53, 0, 115, 1)"></rect><rect width="126" height="3.5" x="0" y="3.5" fill="rgba(0, 0, 0, 0)"></rect></pattern><clipPath id="SvgjsClipPath2055"><circle r="31.5" cx="467.49" cy="347.1"></circle></clipPath><pattern x="0" y="0" width="6" height="6" patternUnits="userSpaceOnUse" id="SvgjsPattern2058"><path d="M3 1L3 5M1 3L5 3" stroke="rgba(53, 0, 115, 1)" fill="none" stroke-width="1.84"></path></pattern><clipPath id="SvgjsClipPath2057"><circle r="15" cx="1063.47" cy="269.8"></circle></clipPath><pattern x="0" y="0" width="6" height="6" patternUnits="userSpaceOnUse" id="SvgjsPattern2060"><path d="M3 1L3 5M1 3L5 3" stroke="rgba(53, 0, 115, 1)" fill="none" stroke-width="1"></path></pattern><clipPath id="SvgjsClipPath2059"><circle r="66" cx="590.86" cy="112.31"></circle></clipPath><pattern x="0" y="0" width="8.18" height="8.18" patternUnits="userSpaceOnUse" id="SvgjsPattern2062"><path d="M0 8.18L4.09 0L8.18 8.18" stroke="rgba(53, 0, 115, 1)" fill="none"></path></pattern><clipPath id="SvgjsClipPath2061"><circle r="49.08" cx="1121.19" cy="333.39"></circle></clipPath><pattern x="0" y="0" width="10.12" height="10.12" patternUnits="userSpaceOnUse" id="SvgjsPattern2064"><path d="M5.06 1L5.06 9.12M1 5.06L9.12 5.06" stroke="rgba(53, 0, 115, 1)" fill="none" stroke-width="1"></path></pattern><clipPath id="SvgjsClipPath2063"><circle r="25.3" cx="54.91" cy="120.62"></circle></clipPath><pattern x="0" y="0" width="6" height="6" patternUnits="userSpaceOnUse" id="SvgjsPattern2066"><path d="M0 6L3 0L6 6" stroke="rgba(53, 0, 115, 1)" fill="none"></path></pattern><clipPath id="SvgjsClipPath2065"><circle r="15" cx="1019.36" cy="342.4"></circle></clipPath><pattern x="0" y="0" width="156" height="6" patternUnits="userSpaceOnUse" id="SvgjsPattern2068"><rect width="156" height="3" x="0" y="0" fill="rgba(53, 0, 115, 1)"></rect><rect width="156" height="3" x="0" y="3" fill="rgba(0, 0, 0, 0)"></rect></pattern><clipPath id="SvgjsClipPath2067"><circle r="39" cx="363.22" cy="333.72"></circle></clipPath></defs></svg>