<svg id="visual" viewBox="0 0 900 600" width="900" height="600" xmlns="http://www.w3.org/2000/svg" xmlns:xlink="http://www.w3.org/1999/xlink" version="1.1"><rect x="0" y="0" width="900" height="600" fill="#000000"></rect><path d="M453 0L564 0L564 75L479 75L479 150L406 150L406 225L594 225L594 300L475 300L475 375L459 375L459 450L502 450L502 525L590 525L590 600L0 600L0 525L0 525L0 450L0 450L0 375L0 375L0 300L0 300L0 225L0 225L0 150L0 150L0 75L0 75L0 0L0 0Z" fill="#ff6f61"></path><path d="M404 0L404 0L404 75L467 75L467 150L512 150L512 225L421 225L421 300L495 300L495 375L435 375L435 450L318 450L318 525L500 525L500 600L0 600L0 525L0 525L0 450L0 450L0 375L0 375L0 300L0 300L0 225L0 225L0 150L0 150L0 75L0 75L0 0L0 0Z" fill="#ef4b68"></path><path d="M336 0L297 0L297 75L275 75L275 150L341 150L341 225L291 225L291 300L292 300L292 375L347 375L347 450L330 450L330 525L288 525L288 600L0 600L0 525L0 525L0 450L0 450L0 375L0 375L0 300L0 300L0 225L0 225L0 150L0 150L0 75L0 75L0 0L0 0Z" fill="#d82371"></path><path d="M201 0L279 0L279 75L317 75L317 150L330 150L330 225L305 225L305 300L320 300L320 375L331 375L331 450L301 450L301 525L323 525L323 600L0 600L0 525L0 525L0 450L0 450L0 375L0 375L0 300L0 300L0 225L0 225L0 150L0 150L0 75L0 75L0 0L0 0Z" fill="#b8007d"></path><path d="M173 0L237 0L237 75L143 75L143 150L182 150L182 225L189 225L189 300L191 300L191 375L239 375L239 450L140 450L140 525L226 525L226 600L0 600L0 525L0 525L0 450L0 450L0 375L0 375L0 300L0 300L0 225L0 225L0 150L0 150L0 75L0 75L0 0L0 0Z" fill="#8f0088"></path><path d="M73 0L80 0L80 75L64 75L64 150L155 150L155 225L115 225L115 300L80 300L80 375L78 375L78 450L100 450L100 525L149 525L149 600L0 600L0 525L0 525L0 450L0 450L0 375L0 375L0 300L0 300L0 225L0 225L0 150L0 150L0 75L0 75L0 0L0 0Z" fill="#560090"></path></svg>