<svg xmlns="http://www.w3.org/2000/svg" version="1.1" xmlns:xlink="http://www.w3.org/1999/xlink" xmlns:svgjs="http://svgjs.dev/svgjs" width="1440" height="560" preserveAspectRatio="none" viewBox="0 0 1440 560"><g mask="url(&quot;#SvgjsMask1021&quot;)" fill="none"><rect width="1440" height="560" x="0" y="0" fill="rgba(0, 0, 0, 1)"></rect><path d="M8 54L7 307" stroke-width="10" stroke="url(&quot;#SvgjsLinearGradient1022&quot;)" stroke-linecap="round" class="Up"></path><path d="M1198 76L1197 -236" stroke-width="8" stroke="url(&quot;#SvgjsLinearGradient1022&quot;)" stroke-linecap="round" class="Up"></path><path d="M781 138L780 358" stroke-width="6" stroke="url(&quot;#SvgjsLinearGradient1022&quot;)" stroke-linecap="round" class="Up"></path><path d="M163 111L162 -173" stroke-width="8" stroke="url(&quot;#SvgjsLinearGradient1022&quot;)" stroke-linecap="round" class="Up"></path><path d="M886 208L885 475" stroke-width="8" stroke="url(&quot;#SvgjsLinearGradient1023&quot;)" stroke-linecap="round" class="Down"></path><path d="M1386 130L1385 -255" stroke-width="8" stroke="url(&quot;#SvgjsLinearGradient1022&quot;)" stroke-linecap="round" class="Up"></path><path d="M757 416L756 718" stroke-width="6" stroke="url(&quot;#SvgjsLinearGradient1022&quot;)" stroke-linecap="round" class="Up"></path><path d="M1066 559L1065 192" stroke-width="6" stroke="url(&quot;#SvgjsLinearGradient1022&quot;)" stroke-linecap="round" class="Up"></path><path d="M670 280L669 688" stroke-width="8" stroke="url(&quot;#SvgjsLinearGradient1022&quot;)" stroke-linecap="round" class="Up"></path><path d="M613 540L612 760" stroke-width="6" stroke="url(&quot;#SvgjsLinearGradient1023&quot;)" stroke-linecap="round" class="Down"></path><path d="M263 192L262 520" stroke-width="6" stroke="url(&quot;#SvgjsLinearGradient1023&quot;)" stroke-linecap="round" class="Down"></path><path d="M1155 378L1154 754" stroke-width="6" stroke="url(&quot;#SvgjsLinearGradient1023&quot;)" stroke-linecap="round" class="Down"></path><path d="M1421 383L1420 -30" stroke-width="8" stroke="url(&quot;#SvgjsLinearGradient1022&quot;)" stroke-linecap="round" class="Up"></path><path d="M502 258L501 449" stroke-width="10" stroke="url(&quot;#SvgjsLinearGradient1022&quot;)" stroke-linecap="round" class="Up"></path><path d="M335 1L334 -351" stroke-width="6" stroke="url(&quot;#SvgjsLinearGradient1022&quot;)" stroke-linecap="round" class="Up"></path><path d="M612 517L611 196" stroke-width="6" stroke="url(&quot;#SvgjsLinearGradient1022&quot;)" stroke-linecap="round" class="Up"></path><path d="M824 486L823 722" stroke-width="10" stroke="url(&quot;#SvgjsLinearGradient1022&quot;)" stroke-linecap="round" class="Up"></path><path d="M988 218L987 -163" stroke-width="10" stroke="url(&quot;#SvgjsLinearGradient1022&quot;)" stroke-linecap="round" class="Up"></path><path d="M1381 155L1380 -161" stroke-width="8" stroke="url(&quot;#SvgjsLinearGradient1022&quot;)" stroke-linecap="round" class="Up"></path><path d="M201 205L200 -178" stroke-width="10" stroke="url(&quot;#SvgjsLinearGradient1022&quot;)" stroke-linecap="round" class="Up"></path><path d="M622 155L621 389" stroke-width="8" stroke="url(&quot;#SvgjsLinearGradient1022&quot;)" stroke-linecap="round" class="Up"></path><path d="M331 402L330 43" stroke-width="6" stroke="url(&quot;#SvgjsLinearGradient1023&quot;)" stroke-linecap="round" class="Down"></path><path d="M568 315L567 645" stroke-width="10" stroke="url(&quot;#SvgjsLinearGradient1023&quot;)" stroke-linecap="round" class="Down"></path><path d="M1065 359L1064 145" stroke-width="10" stroke="url(&quot;#SvgjsLinearGradient1023&quot;)" stroke-linecap="round" class="Down"></path><path d="M1388 360L1387 155" stroke-width="6" stroke="url(&quot;#SvgjsLinearGradient1022&quot;)" stroke-linecap="round" class="Up"></path><path d="M628 129L627 -102" stroke-width="8" stroke="url(&quot;#SvgjsLinearGradient1023&quot;)" stroke-linecap="round" class="Down"></path><path d="M407 511L406 859" stroke-width="10" stroke="url(&quot;#SvgjsLinearGradient1023&quot;)" stroke-linecap="round" class="Down"></path><path d="M1379 453L1378 679" stroke-width="6" stroke="url(&quot;#SvgjsLinearGradient1023&quot;)" stroke-linecap="round" class="Down"></path><path d="M270 44L269 295" stroke-width="8" stroke="url(&quot;#SvgjsLinearGradient1023&quot;)" stroke-linecap="round" class="Down"></path><path d="M1342 157L1341 -119" stroke-width="8" stroke="url(&quot;#SvgjsLinearGradient1023&quot;)" stroke-linecap="round" class="Down"></path><path d="M267 265L266 -44" stroke-width="10" stroke="url(&quot;#SvgjsLinearGradient1022&quot;)" stroke-linecap="round" class="Up"></path><path d="M822 476L821 870" stroke-width="8" stroke="url(&quot;#SvgjsLinearGradient1022&quot;)" stroke-linecap="round" class="Up"></path><path d="M219 120L218 469" stroke-width="6" stroke="url(&quot;#SvgjsLinearGradient1022&quot;)" stroke-linecap="round" class="Up"></path><path d="M1293 476L1292 165" stroke-width="6" stroke="url(&quot;#SvgjsLinearGradient1023&quot;)" stroke-linecap="round" class="Down"></path><path d="M929 37L928 -182" stroke-width="6" stroke="url(&quot;#SvgjsLinearGradient1022&quot;)" stroke-linecap="round" class="Up"></path><path d="M518 206L517 401" stroke-width="10" stroke="url(&quot;#SvgjsLinearGradient1023&quot;)" stroke-linecap="round" class="Down"></path></g><defs><mask id="SvgjsMask1021"><rect width="1440" height="560" fill="#ffffff"></rect></mask><linearGradient x1="0%" y1="100%" x2="0%" y2="0%" id="SvgjsLinearGradient1022"><stop stop-color="rgba(103, 1, 123, 0)" offset="0"></stop><stop stop-color="rgba(103, 1, 123, 1)" offset="1"></stop></linearGradient><linearGradient x1="0%" y1="0%" x2="0%" y2="100%" id="SvgjsLinearGradient1023"><stop stop-color="rgba(103, 1, 123, 0)" offset="0"></stop><stop stop-color="rgba(103, 1, 123, 1)" offset="1"></stop></linearGradient></defs></svg>